Coordinates
version=1
nRows=14
nColumns=24
inDegrees=yes

Units are S.I. units (second, meters, Newtons, ...)
Angles are in degrees.

endheader
time	pelvis_tilt	pelvis_list	pelvis_rotation	pelvis_tx	pelvis_ty	pelvis_tz	hip_flexion_r	hip_adduction_r	hip_rotation_r	knee_angle_r	ankle_angle_r	subtalar_angle_r	mtp_angle_r	hip_flexion_l	hip_adduction_l	hip_rotation_l	knee_angle_l	ankle_angle_l	subtalar_angle_l	mtp_angle_l	lumbar_extension	lumbar_bending	lumbar_rotation
      7.45000000	      6.42097767	     -5.94432937	     -6.00436158	     -0.99371451	      0.92394034	      0.20477286	    -18.72785150	      9.34874841	      6.42817295	     -7.21797445	     19.73404159	      2.69630016	      0.00000000	     10.21064187	     -4.01783624	     -9.01369515	      1.74696272	      2.68668123	      2.51818587	      0.00000000	    -25.85571111	      5.98548831	      5.57772706
      7.46000000	      6.51375375	     -5.88631376	     -6.12463709	     -0.98403098	      0.92321678	      0.20388171	    -19.03968856	      9.12650970	      6.43783571	     -8.03985118	     19.81864959	      2.77461321	      0.00000000	     10.07918521	     -3.87874687	     -8.39641778	      0.89733620	      1.55851555	      1.23710341	      0.00000000	    -25.96107897	      5.87909181	      5.69865788
      7.47000000	      6.62006962	     -5.77556152	     -6.24650114	     -0.97420168	      0.92270534	      0.20297594	    -19.30563812	      8.85163722	      6.54230987	     -8.97789253	     19.75363750	      2.76485603	      0.00000000	      9.88544817	     -3.67777630	     -7.59133179	      0.05512210	      0.05394874	     -0.04513688	      0.00000000	    -26.04090458	      5.70805539	      5.79473855
      7.48000000	      6.74254075	     -5.59075183	     -6.35713568	     -0.96422628	      0.92245788	      0.20203364	    -19.51431733	      8.50154496	      6.61161263	    -10.03900770	     19.57325907	      2.75929537	      0.00000000	      9.63769894	     -3.38233111	     -6.60934322	     -0.73818832	     -1.72206897	     -1.40649964	      0.00000000	    -26.09145314	      5.45635806	      5.89857369
      7.49000000	      6.86454979	     -5.33688525	     -6.39547091	     -0.95412739	      0.92248240	      0.20100126	    -19.62994630	      8.10722158	      6.55459296	    -11.24540413	     19.19585654	      2.77899612	      0.00000000	      9.39073353	     -2.98963520	     -5.48299240	     -1.50546783	     -3.54868955	     -2.83709083	      0.00000000	    -26.09041597	      5.15063619	      5.86805256
      7.50000000	      7.00618287	     -5.02597235	     -6.35097355	     -0.94394303	      0.92283201	      0.19988870	    -19.66017396	      7.68166323	      6.32649993	    -12.61319797	     18.63406069	      2.84573254	      0.00000000	      9.15187087	     -2.51463356	     -4.33610809	     -2.30929609	     -5.11653429	     -4.17766903	      0.00000000	    -26.07150353	      4.79706328	      5.76057799
      7.51000000	      7.15575095	     -4.66619664	     -6.23105007	     -0.93371077	      0.92349272	      0.19870333	    -19.56392951	      7.22857342	      5.88499632	    -14.18850073	     17.84556952	      2.96569582	      0.00000000	      8.95322590	     -1.97101496	     -3.28816317	     -3.21401069	     -6.12276036	     -5.32976181	      0.00000000	    -26.03301998	      4.40584742	      5.58813533
      7.52000000	      7.31878754	     -4.29789873	     -6.04346459	     -0.92349113	      0.92444881	      0.19746213	    -19.33641850	      6.78639315	      5.28380645	    -15.98851857	     16.83077738	      3.12247574	      0.00000000	      8.79377257	     -1.40572318	     -2.46345101	     -4.25661768	     -6.45888752	     -6.22010497	      0.00000000	    -26.00308272	      4.02320415	      5.36678178
      7.53000000	      7.48424238	     -3.93715390	     -5.80851593	     -0.91330861	      0.92565361	      0.19617542	    -18.94841621	      6.35713755	      4.53051516	    -18.03401967	     15.50155764	      3.30894712	      0.00000000	      8.62677537	     -0.84012318	     -1.81928398	     -5.33972428	     -6.31801404	     -6.89782235	      0.00000000	    -25.97297201	      3.65862055	      5.13515743
      7.54000000	      7.65117806	     -3.61742517	     -5.48959966	     -0.90322709	      0.92702113	      0.19479110	    -18.39726315	      5.98456694	      3.63271926	    -20.30530820	     13.81878449	      3.32495109	      0.00000000	      8.45793421	     -0.31065312	     -1.37628422	     -6.46366288	     -5.66316438	     -7.23541024	      0.00000000	    -25.96509577	      3.37198146	      4.84369444
      7.55000000	      7.77183933	     -3.34329006	     -5.15449674	     -0.89326140	      0.92843633	      0.19334825	    -17.60517420	      5.63769619	      2.62024987	    -22.83598341	     11.76585093	      3.32141572	      0.00000000	      8.24706324	      0.17334558	     -0.96964912	     -7.45451461	     -4.84781760	     -7.48682897	      0.00000000	    -25.92115364	      3.15845687	      4.56755325
      7.56000000	      7.84608085	     -3.11688689	     -4.83185473	     -0.88344437	      0.92982822	      0.19187569	    -16.57766230	      5.30442969	      1.56537643	    -25.59227030	      9.30716726	      3.19734771	      0.00000000	      7.97038816	      0.60507747	     -0.62048065	     -8.24794320	     -4.00175993	     -7.63304810	      0.00000000	    -25.84487141	      3.01569559	      4.30661421
      7.57000000	      7.79726586	     -2.94013391	     -4.59045072	     -0.87382258	      0.93102693	      0.19048717	    -15.23997684	      5.00415595	      0.69554032	    -28.54492229	      6.38910895	      2.63510741	      0.00000000	      7.71377499	      0.96559813	     -0.38686603	     -8.83897800	     -3.10559469	     -7.72199257	      0.00000000	    -25.66043144	      2.92553190	      4.13258624
      7.58000000	      7.73669815	     -2.78816262	     -4.42604291	     -0.86440559	      0.93213356	      0.18917108	    -13.73820428	      4.68421841	     -0.07164519	    -31.61644214	      3.03199132	      1.84755284	      0.00000000	      7.35092232	      1.29632393	     -0.20026126	     -9.19764832	     -2.35060313	     -7.81186885	      0.00000000	    -25.50835259	      2.85075437	      4.00486686
